<svg height="511pt" viewBox="-52 1 511 511.99998" width="511pt" xmlns="http://www.w3.org/2000/svg"><path d="m204.492188 135.179688c-17.15625 0-31.195313-14.039063-31.195313-31.195313v-72.789063c0-17.15625 14.039063-31.195312 31.195313-31.195312s31.195312 14.039062 31.195312 31.195312v72.789063c0 17.160156-14.039062 31.195313-31.195312 31.195313zm0 0" fill="#a56950"/><path d="m363.039062 237.320312h-317.09375s-29.90625 193.894532 112.011719 263.832032c29.355469 14.464844 63.71875 14.464844 93.070313 0 141.917968-69.9375 112.011718-263.832032 112.011718-263.832032zm0 0" fill="#ffc477"/><path d="m347 301.214844v-63.894532h-301.054688s-29.90625 193.894532 112.015626 263.832032c17.695312 8.71875 37.226562 12.183594 56.367187 10.386718-19.734375-17.246093-32.585937-36.929687-40.863281-56.144531-17.515625-40.660156 8.066406-87.011719 51.75-94.222656 86.628906-14.308594 121.785156-59.957031 121.785156-59.957031zm0 0" fill="#ffb05a"/><path d="m204.492188 60.226562c-99.144532 0-182.042969 69.542969-202.585938 162.507813-6.070312 27.46875 7.949219 55.410156 33.402344 67.390625 34.0625 16.039062 90.6875 34.800781 169.183594 34.800781 78.5 0 135.121093-18.761719 169.183593-34.800781 25.453125-11.980469 39.472657-39.921875 33.402344-67.390625-20.542969-92.964844-103.441406-162.507813-202.585937-162.507813zm0 0" fill="#c68d6d"/><g fill="#b2785b"><path d="m199.261719 154.304688-17.964844-17.964844c-5.394531-5.394532-5.394531-14.148438 0-19.542969l17.964844-17.964844c5.398437-5.398437 14.148437-5.398437 19.546875 0l17.960937 17.964844c5.398438 5.394531 5.398438 14.148437 0 19.542969l-17.960937 17.964844c-5.398438 5.398437-14.148438 5.398437-19.546875 0zm0 0"/><path d="m265.269531 220.3125-17.964843-17.960938c-5.394532-5.398437-5.394532-14.148437 0-19.546874l17.964843-17.964844c5.398438-5.394532 14.148438-5.394532 19.546875 0l17.960938 17.964844c5.398437 5.398437 5.398437 14.148437 0 19.546874l-17.960938 17.960938c-5.398437 5.398438-14.148437 5.398438-19.546875 0zm0 0"/><path d="m199.261719 286.320312-17.964844-17.960937c-5.394531-5.398437-5.394531-14.148437 0-19.546875l17.964844-17.964844c5.398437-5.394531 14.148437-5.394531 19.546875 0l17.960937 17.964844c5.398438 5.398438 5.398438 14.148438 0 19.546875l-17.960937 17.960937c-5.398438 5.398438-14.148438 5.398438-19.546875 0zm0 0"/></g><path d="m287.582031 393.511719c-4.265625 0-7.722656-3.460938-7.722656-7.726563v-12.828125c0-4.265625 3.457031-7.726562 7.722656-7.726562 4.269531 0 7.726563 3.460937 7.726563 7.726562v12.828125c0 4.269532-3.457032 7.726563-7.726563 7.726563zm0 0" fill="#57565c"/><path d="m121.402344 393.511719c-4.269532 0-7.726563-3.460938-7.726563-7.726563v-12.828125c0-4.265625 3.457031-7.726562 7.726563-7.726562 4.265625 0 7.726562 3.460937 7.726562 7.726562v12.828125c0 4.269532-3.460937 7.726563-7.726562 7.726563zm0 0" fill="#57565c"/><path d="m204.492188 401.601562c-10 0-20-3.234374-28.34375-9.707031-3.371094-2.617187-3.984376-7.46875-1.371094-10.84375 2.617187-3.371093 7.46875-3.984375 10.839844-1.367187 11.113281 8.617187 26.632812 8.617187 37.75 0 3.367187-2.617188 8.222656-2.003906 10.835937 1.367187 2.617187 3.375 2.003906 8.226563-1.367187 10.84375-8.34375 6.472657-18.34375 9.707031-28.34375 9.707031zm0 0" fill="#57565c"/><path d="m130.429688 73.835938c-64.394532 24.617187-113.390626 80.402343-128.523438 148.898437-6.070312 27.46875 7.949219 55.410156 33.402344 67.390625 28.914062 13.617188 74.101562 29.191406 135.101562 33.59375-103.449218-75.183594-62.785156-199.148438-39.980468-249.882812zm0 0" fill="#b2785b"/></svg>